HIERARCHY
ROOT Hips
{
    OFFSET 0.000000 0.000000 0.000000
    CHANNELS 6 Xposition Yposition Zposition Zrotation Xrotation Yrotation
    JOINT Spine
    {
        OFFSET -0.000000 0.089591 0.000000
        CHANNELS 3 Zrotation Xrotation Yrotation
        JOINT Spine1
        {
            OFFSET 0.000000 0.181340 -0.000000
            CHANNELS 3 Zrotation Xrotation Yrotation
            JOINT Neck
            {
                OFFSET 0.000000 0.138314 0.000000
                CHANNELS 3 Zrotation Xrotation Yrotation
                JOINT Head
                {
                    OFFSET 0.000000 0.091545 0.016974
                    CHANNELS 3 Zrotation Xrotation Yrotation
                    End Site
                    {
                        OFFSET 0.000000 0.169735 0.000000
                    }
                }
            }
            JOINT LeftShoulder
            {
                OFFSET 0.033906 0.112354 -0.007590
                CHANNELS 3 Zrotation Xrotation Yrotation
                JOINT LeftArm
                {
                    OFFSET 0.124592 0.000000 -0.000000
                    CHANNELS 3 Zrotation Xrotation Yrotation
                    JOINT LeftForeArm
                    {
                        OFFSET 0.264466 -0.000000 0.000000
                        CHANNELS 3 Zrotation Xrotation Yrotation
                        JOINT LeftHand
                        {
                            OFFSET 0.245659 -0.000000 0.000000
                            CHANNELS 3 Zrotation Xrotation Yrotation
                            End Site
                            {
                                OFFSET 0.127301 0.000000 0.000000
                            }
                        }
                    }
                }
            }
            JOINT RightShoulder
            {
                OFFSET -0.033906 0.112354 -0.007590
                CHANNELS 3 Zrotation Xrotation Yrotation
                JOINT RightArm
                {
                    OFFSET -0.124592 -0.000000 0.000000
                    CHANNELS 3 Zrotation Xrotation Yrotation
                    JOINT RightForeArm
                    {
                        OFFSET -0.264466 0.000000 0.000000
                        CHANNELS 3 Zrotation Xrotation Yrotation
                        JOINT RightHand
                        {
                            OFFSET -0.245659 -0.000000 0.000000
                            CHANNELS 3 Zrotation Xrotation Yrotation
                            End Site
                            {
                                OFFSET -0.127301 0.000000 0.000000
                            }
                        }
                    }
                }
            }
        }
    }
    JOINT LeftUpLeg
    {
        OFFSET 0.084867 -0.000000 -0.000000
        CHANNELS 3 Zrotation Xrotation Yrotation
        JOINT LeftLeg
        {
            OFFSET -0.000000 -0.414866 -0.000000
            CHANNELS 3 Zrotation Xrotation Yrotation
            JOINT LeftFoot
            {
                OFFSET -0.000000 -0.344526 -0.000000
                CHANNELS 3 Zrotation Xrotation Yrotation
                JOINT LeftToeBase
                {
                    OFFSET 0.000000 -0.055164 0.127301
                    CHANNELS 3 Zrotation Xrotation Yrotation
                    End Site
                    {
                        OFFSET 0.000000 0.000000 0.033947
                    }
                }
            }
        }
    }
    JOINT RightUpLeg
    {
        OFFSET -0.084867 0.000000 0.000000
        CHANNELS 3 Zrotation Xrotation Yrotation
        JOINT RightLeg
        {
            OFFSET 0.000000 -0.414866 0.000000
            CHANNELS 3 Zrotation Xrotation Yrotation
            JOINT RightFoot
            {
                OFFSET -0.000000 -0.344526 0.000000
                CHANNELS 3 Zrotation Xrotation Yrotation
                JOINT RightToeBase
                {
                    OFFSET -0.000000 -0.055164 0.127301
                    CHANNELS 3 Zrotation Xrotation Yrotation
                    End Site
                    {
                        OFFSET 0.000000 0.000000 0.033947
                    }
                }
            }
        }
    }
}
MOTION
Frames:    7
Frame Time:    0.050000
-0.161792    0.830691    -0.362616    -3.198394    0.982673    87.186638    -0.345788    -15.965716    -1.256941    0.289786    14.140186    -1.242625    1.016807    8.103725    -2.276102    4.017262    -6.673826    -1.677677    4.686871    5.177422    5.494597    -65.806572    49.413464    -22.703911    -1.608225    -3.724808    -23.372868    13.023803    -4.698770    4.112762    -4.448471    4.898458    1.903248    57.505493    55.523907    40.178822    -0.284178    -7.797359    -2.093703    -1.636032    -6.667787    4.263230    -4.245203    -3.895616    -4.781740    0.000001    11.819658    0.000003    1.959893    -10.804515    3.442562    0.000000    1.964765    -0.000012    0.579166    -5.460690    1.948708    -0.000000    10.374124    0.000003    2.319471    -6.463085    16.868500    -0.000000    -2.190272    -0.000007    
-0.161302    0.830619    -0.362864    -3.129348    0.984905    87.245834    -0.346945    -16.039097    -1.255530    0.304666    14.146124    -1.244522    0.998968    8.235559    -2.572278    4.013874    -6.793930    -1.968231    4.690488    5.188296    5.513810    -65.836838    49.393585    -22.718534    -1.684351    -3.908880    -23.333618    13.094175    -4.879610    4.216511    -4.440562    4.905985    1.881407    57.492435    55.528893    40.191860    -0.284612    -7.812973    -2.092788    -1.563956    -6.680537    4.214368    -4.275270    -3.790993    -4.868060    -0.000001    11.814843    0.000003    1.982748    -10.820682    3.463166    -0.000000    1.936852    -0.000004    0.562307    -5.397830    1.995919    -0.000000    10.476601    0.000004    2.208061    -6.540834    16.783396    0.000001    -2.288074    0.000006    
-0.160825    0.830618    -0.363053    -3.050176    0.984005    87.302887    -0.348218    -16.147909    -1.251869    0.307153    14.139134    -1.241077    1.039206    8.414553    -2.756886    3.988642    -6.791751    -2.149250    4.690214    5.223222    5.503328    -65.893219    49.380699    -22.663429    -1.661710    -3.866399    -23.278795    13.131757    -4.844244    4.222782    -4.422980    4.922796    1.888722    57.563549    55.540039    40.131229    -0.290554    -7.807840    -2.137768    -1.561908    -6.680969    4.199742    -4.288980    -3.707278    -4.811125    -0.000001    11.870517    -0.000001    1.952347    -10.851928    3.379438    -0.000000    1.909323    0.000008    0.544244    -5.287734    2.027575    0.000001    10.500440    -0.000007    2.208479    -6.587309    16.717155    -0.000001    -2.368953    -0.000011    
-0.160521    0.830599    -0.363186    -3.002621    0.983117    87.347260    -0.358280    -16.236824    -1.281171    0.307294    14.139292    -1.267838    1.099843    8.421477    -2.799496    3.909061    -6.689243    -2.199792    4.708001    5.249777    5.507218    -66.034363    49.302120    -22.507189    -1.612456    -3.754957    -23.260067    12.813367    -4.740402    4.188791    -4.423714    4.886350    1.842787    57.594452    55.545147    40.133125    -0.286560    -7.656772    -2.149739    -1.435173    -6.529986    4.364941    -4.299355    -3.631642    -4.814292    -0.000001    11.855074    0.000006    1.950145    -10.865062    3.341227    -0.000000    1.898453    0.000009    0.537927    -5.220555    2.148270    0.000000    10.515324    0.000004    2.217582    -6.622310    16.583311    -0.000001    -2.425588    -0.000007    
-0.160347    0.830563    -0.363335    -2.969163    0.987896    87.351288    -0.370153    -16.295984    -1.318937    0.313914    14.138078    -1.304285    1.122573    8.400287    -2.758647    3.914656    -6.745862    -2.150789    4.687803    5.262718    5.481978    -66.218910    49.185055    -22.291122    -1.603571    -3.742413    -23.214853    12.915370    -4.745236    4.157964    -4.461890    4.868630    1.768613    57.582790    55.538239    40.202267    -0.285097    -7.633360    -2.145327    -1.309991    -6.497890    4.354861    -4.312185    -3.579140    -4.795231    0.000000    11.838417    0.000001    1.941806    -10.868549    3.304986    -0.000000    1.889876    0.000002    0.527598    -5.172328    2.239256    0.000001    10.511432    -0.000005    2.199807    -6.643457    16.507969    0.000000    -2.443955    0.000008    
-0.160319    0.830564    -0.363468    -2.937287    0.983371    87.272369    -0.381280    -16.325533    -1.356184    0.313100    14.127518    -1.338551    1.202981    8.387731    -2.760954    3.978635    -6.905777    -2.122170    4.695014    5.263527    5.482266    -66.377235    49.137157    -22.122417    -1.610032    -3.768072    -23.156761    12.864067    -4.767911    4.199792    -4.467389    4.875399    1.753999    57.574528    55.514324    40.244354    -0.284132    -7.659884    -2.130655    -1.497310    -6.515854    4.344682    -4.312161    -3.539464    -4.726892    0.000001    11.834065    -0.000002    1.910880    -10.883040    3.309657    0.000000    1.892488    0.000003    0.523970    -5.147378    2.327717    0.000002    10.512478    -0.000012    2.249684    -6.631157    16.531813    -0.000000    -2.439472    0.000004    
-0.160467    0.830562    -0.363633    -2.910385    0.977462    87.098602    -0.387630    -16.330338    -1.378365    0.319441    14.120074    -1.360709    1.335046    8.305869    -2.833863    4.029764    -6.962447    -2.167149    4.704776    5.254231    5.467109    -66.493126    49.099297    -22.011217    -1.609331    -3.774508    -23.112156    12.823948    -4.797183    4.081676    -4.464550    4.864062    1.712188    57.594048    55.504623    40.242275    -0.280188    -7.627488    -2.109996    -1.567760    -6.477504    4.361887    -4.317137    -3.519314    -4.653347    -0.000000    11.841580    0.000001    1.933079    -10.889663    3.399256    -0.000000    1.883944    0.000009    0.532544    -5.138716    2.466631    -0.000000    10.486800    -0.000002    2.292741    -6.591465    16.535322    -0.000000    -2.401155    -0.000003    
